<?xml version="1.0" encoding="UTF-8" standalone="no"?>
<!-- Generator: Adobe Illustrator 22.1.0, SVG Export Plug-In . SVG Version: 6.00 Build 0)  -->

<svg
   xmlns:dc="http://purl.org/dc/elements/1.1/"
   xmlns:cc="http://creativecommons.org/ns#"
   xmlns:rdf="http://www.w3.org/1999/02/22-rdf-syntax-ns#"
   xmlns:svg="http://www.w3.org/2000/svg"
   xmlns="http://www.w3.org/2000/svg"
   xmlns:sodipodi="http://sodipodi.sourceforge.net/DTD/sodipodi-0.dtd"
   xmlns:inkscape="http://www.inkscape.org/namespaces/inkscape"
   version="1.1"
   id="Ebene_1"
   x="0px"
   y="0px"
   viewBox="0 0 66.500002 74"
   xml:space="preserve"
   sodipodi:docname="balena.svg"
   width="32px"
   height="32px"
   inkscape:version="0.92.3 (2405546, 2018-03-11)"><metadata
   id="metadata3802"><rdf:RDF><cc:Work
       rdf:about=""><dc:format>image/svg+xml</dc:format><dc:type
         rdf:resource="http://purl.org/dc/dcmitype/StillImage" /><dc:title></dc:title></cc:Work></rdf:RDF></metadata><defs
   id="defs3800" /><sodipodi:namedview
   pagecolor="#ffffff"
   bordercolor="#666666"
   borderopacity="1"
   objecttolerance="10"
   gridtolerance="10"
   guidetolerance="10"
   inkscape:pageopacity="0"
   inkscape:pageshadow="2"
   inkscape:window-width="3146"
   inkscape:window-height="1733"
   id="namedview3798"
   showgrid="false"
   inkscape:zoom="12.019931"
   inkscape:cx="59.62057"
   inkscape:cy="38.463148"
   inkscape:window-x="0"
   inkscape:window-y="0"
   inkscape:window-maximized="0"
   inkscape:current-layer="Ebene_1" />
<style
   type="text/css"
   id="style3767">
	.st0{fill:#FFFFFF;}
	.st1{fill:#FFC100;}
	.st2{fill:#F6EB61;}
	.st3{fill:#439879;}
	.st4{fill:#28CDFB;}
	.st5{fill:#FDD757;}
	.st6{fill:#EC8B00;}
</style>

<g
   id="g3795">
	<path
   class="st1"
   d="m 34.9,43.9 v 20.6 c 0.9,-0.2 1.7,-0.4 2.5,-0.9 l 17.1,-9.8 c 2.5,-1.4 4,-4.1 4,-7 V 27.3 c 0,-0.8 -0.1,-1.6 -0.4,-2.3 L 39.6,35.7 c -3.9,2.7 -4.7,5.2 -4.7,8.2 z"
   id="path3783"
   inkscape:connector-curvature="0"
   style="fill:#ffc100" />
	<path
   class="st2"
   d="m 64.9,21 -6.8,3.9 c 0.2,0.7 0.4,1.5 0.4,2.3 v 19.6 c 0,2.9 -1.6,5.6 -4,7 l -17.1,9.8 c -0.8,0.4 -1.6,0.7 -2.5,0.9 v 7.8 c 1.2,-0.2 2.4,-0.6 3.4,-1.2 L 60.5,58.4 c 3.1,-1.8 5,-5.1 5,-8.7 V 24.3 c 0,-1.1 -0.2,-2.2 -0.6,-3.3 z"
   id="path3785"
   inkscape:connector-curvature="0"
   style="fill:#f6eb61" />
	<path
   class="st3"
   d="m 33.3,37.4 c 1,-1.6 2.5,-3.1 4.7,-4.4 L 56.7,22.2 c -0.6,-0.8 -1.4,-1.5 -2.2,-2 L 37.4,10.4 C 34.9,9 31.8,9 29.3,10.4 l -17,9.8 c -0.9,0.5 -1.6,1.2 -2.3,2 L 28.6,33 c 2.2,1.4 3.7,2.8 4.7,4.4 z"
   id="path3787"
   inkscape:connector-curvature="0"
   style="fill:#439879" />
	<path
   class="st4"
   d="m 12.3,20.3 17,-9.8 c 2.5,-1.4 5.6,-1.4 8.1,0 l 17.1,9.8 c 0.9,0.5 1.6,1.2 2.2,2 l 6.8,-3.9 c -0.8,-1.1 -1.8,-2 -3,-2.6 L 38.3,2.9 c -3.1,-1.8 -6.9,-1.8 -10,0 l -22,12.8 c -1.2,0.7 -2.2,1.6 -3,2.7 l 6.8,3.9 c 0.5,-0.8 1.3,-1.5 2.2,-2 z"
   id="path3789"
   inkscape:connector-curvature="0"
   style="fill:#28cdfb" />
	<path
   class="st5"
   d="m 29.3,63.6 -17,-9.8 c -2.5,-1.4 -4,-4.1 -4,-7 V 27.2 C 8.3,26.4 8.4,25.7 8.6,25 L 1.8,21.1 c -0.4,1.1 -0.6,2.1 -0.6,3.2 v 25.5 c 0,3.6 1.9,6.9 5,8.6 l 22.1,12.7 c 1,0.6 2.2,1 3.4,1.2 v -7.8 c -0.8,-0.1 -1.6,-0.4 -2.4,-0.9 z"
   id="path3791"
   inkscape:connector-curvature="0"
   style="fill:#fdd757" />
	<path
   class="st6"
   d="M 27,35.6 8.6,25 c -0.2,0.7 -0.3,1.5 -0.3,2.2 v 19.6 c 0,2.9 1.5,5.6 4,7 l 17,9.8 c 0.8,0.4 1.6,0.7 2.5,0.9 V 43.9 c -0.1,-3 -0.9,-5.5 -4.8,-8.3 z"
   id="path3793"
   inkscape:connector-curvature="0"
   style="fill:#ec8b00" />
</g>
</svg>